<svg width="266" height="105" viewBox="0 0 266 105" fill="none" xmlns="http://www.w3.org/2000/svg">
<g filter="url(#filter0_d_1_110)">
<path d="M261.588 49.0959C261.971 48.0599 261.442 46.9095 260.406 46.5264L243.523 40.2833C242.487 39.9002 241.337 40.4295 240.954 41.4655C240.57 42.5015 241.1 43.6519 242.136 44.035L257.143 49.5844L251.593 64.5912C251.21 65.6272 251.739 66.7776 252.775 67.1608C253.811 67.5439 254.962 67.0146 255.345 65.9786L261.588 49.0959ZM4.89834 2.35902C4.99044 4.3569 4.99068 4.35689 4.99157 4.35685C4.99272 4.35679 4.99424 4.35673 4.99653 4.35662C5.0011 4.35641 5.00822 4.35609 5.01785 4.35566C5.03711 4.35481 5.06643 4.35352 5.10563 4.35184C5.18404 4.34847 5.30195 4.34355 5.4579 4.33738C5.76979 4.32504 6.23381 4.30775 6.83814 4.28811C8.04685 4.24883 9.81662 4.20018 12.0531 4.16304C16.5266 4.08874 22.8645 4.06055 30.3124 4.24527C45.2238 4.61508 64.5186 5.837 82.1949 9.22819C91.0322 10.9236 99.4157 13.1522 106.623 16.0631C113.846 18.9808 119.768 22.5365 123.8 26.8204C127.787 31.0571 129.935 36.0075 129.693 41.9099C129.448 47.8855 126.743 55.0697 120.523 63.6672L123.764 66.0116C130.245 57.0523 133.401 49.1164 133.69 42.0737C133.982 34.9579 131.336 28.9918 126.713 24.0791C122.134 19.2135 115.629 15.3868 108.121 12.3542C100.595 9.31478 91.942 7.02524 82.9485 5.29984C64.9632 1.84934 45.4213 0.618753 30.4115 0.246497C22.8988 0.0601747 16.5048 0.0885539 11.9867 0.163588C9.72735 0.20111 7.93634 0.250312 6.70822 0.290221C6.09415 0.310176 5.62074 0.32781 5.29981 0.340503C5.13935 0.34685 5.017 0.351961 4.93425 0.35551C4.89287 0.357285 4.86139 0.358669 4.84 0.359621C4.8293 0.360097 4.82112 0.360466 4.81549 0.360721C4.81267 0.360848 4.81036 0.360954 4.80894 0.361018C4.80727 0.361095 4.80624 0.361142 4.89834 2.35902ZM120.523 63.6672C117.298 68.1257 114.972 72.0288 113.485 75.4258C112.005 78.8063 111.3 81.8115 111.473 84.4285C111.652 87.1235 112.762 89.321 114.691 90.9346C116.557 92.4955 119.056 93.4012 121.878 93.871C127.501 94.8072 135.114 94.1232 143.724 92.464C152.386 90.7949 162.255 88.0973 172.48 84.8629C192.933 78.3932 214.954 69.7291 231.842 62.6924C240.291 59.1722 247.464 56.0554 252.526 53.8183C255.057 52.6996 257.06 51.8007 258.432 51.1811C259.118 50.8712 259.646 50.6312 260.003 50.4684C260.182 50.387 260.317 50.3249 260.409 50.2831C260.454 50.2622 260.489 50.2463 260.512 50.2356C260.524 50.2303 260.533 50.2262 260.539 50.2235C260.542 50.2221 260.544 50.221 260.545 50.2203C260.547 50.2196 260.548 50.2192 259.712 48.4023C258.876 46.5853 258.876 46.5856 258.874 46.5862C258.873 46.5868 258.871 46.5877 258.868 46.5889C258.863 46.5915 258.854 46.5953 258.843 46.6004C258.821 46.6106 258.787 46.626 258.743 46.6465C258.653 46.6874 258.52 46.7486 258.343 46.829C257.991 46.9899 257.467 47.2279 256.786 47.5357C255.423 48.1513 253.429 49.0457 250.909 50.1596C245.868 52.3876 238.721 55.4928 230.304 59.0001C213.46 66.0184 191.563 74.6312 171.274 81.0491C161.128 84.2586 151.42 86.9075 142.968 88.5363C134.464 90.1749 127.428 90.7401 122.535 89.9253C120.099 89.5197 118.374 88.8 117.258 87.8664C116.205 86.9856 115.575 85.8197 115.465 84.1635C115.35 82.4293 115.807 80.0953 117.149 77.03C118.484 73.981 120.639 70.3314 123.764 66.0116L120.523 63.6672Z" fill="white"/>
</g>
<defs>
<filter id="filter0_d_1_110" x="0.808533" y="0.105957" width="264.904" height="104.188" filterUnits="userSpaceOnUse" color-interpolation-filters="sRGB">
<feFlood flood-opacity="0" result="BackgroundImageFix"/>
<feColorMatrix in="SourceAlpha" type="matrix" values="0 0 0 0 0 0 0 0 0 0 0 0 0 0 0 0 0 0 127 0" result="hardAlpha"/>
<feOffset dy="6"/>
<feGaussianBlur stdDeviation="2"/>
<feComposite in2="hardAlpha" operator="out"/>
<feColorMatrix type="matrix" values="0 0 0 0 0 0 0 0 0 0 0 0 0 0 0 0 0 0 0.25 0"/>
<feBlend mode="normal" in2="BackgroundImageFix" result="effect1_dropShadow_1_110"/>
<feBlend mode="normal" in="SourceGraphic" in2="effect1_dropShadow_1_110" result="shape"/>
</filter>
</defs>
</svg>
